# xmcd
# 
# Track frame offsets:
#     150
#     12192
#     23794
#     47654
#     67916
#     111296
#     121049
#     146935
#     158640
#     175452
#     187644
# 
# Disc length: 2754
# 
# Revision: 0
# Processed by: cddbd v1.5.2PL0 Copyright (c) Steve Scherf et al.
# Submitted via: fre:ac v1.0.17
# 
DISCID=870ac00b
DTITLE=King Biscuit Boy - The Best Of King Biscuit Boy Badly Bent
DYEAR=1996
DGENRE=Blues
TTITLE0=Twenty-Nine Ways
TTITLE1=I'm Just A Lonely Boy
TTITLE2=Hoy Hoy Hoy
TTITLE3=Corrina Corrina
TTITLE4=Biscuit's Boogie
TTITLE5=Badly Bent
TTITLE6=You Done Tore Your Playhouse Down Again
TTITLE7=Steel Town Blues Wind and Rain
TTITLE8=Blues For Duffy's Tavern
TTITLE9=Caldonia River
TTITLE10=Gotta Be A Goodun
EXTD=
EXTT0=
EXTT1=
EXTT2=
EXTT3=
EXTT4=
EXTT5=
EXTT6=
EXTT7=
EXTT8=
EXTT9=
EXTT10=
PLAYORDER=
